 <svg version="1.0" xmlns="http://www.w3.org/2000/svg" width="700.000000pt" height="394.000000pt" viewBox="0 0 700.000000 394.000000" preserveAspectRatio="xMidYMid meet">
<metadata>
Created by potrace 1.12, written by Peter Selinger 2001-2015
</metadata>
<g transform="translate(0.000000,394.000000) scale(0.100000,-0.100000)" fill="#000000" stroke="none">
<path d="M2432 3335 c-18 -40 -15 -45 31 -45 37 0 46 4 55 25 18 40 15 45 -31
45 -37 0 -46 -4 -55 -25z"></path>
<path d="M2587 3203 l-15 -38 56 -7 c40 -6 60 -4 67 5 17 18 34 64 28 71 -4 3
-32 6 -64 6 -56 0 -57 0 -72 -37z"></path>
<path d="M2350 3111 c-17 -33 -12 -41 25 -41 29 0 37 5 45 26 14 35 14 34 -25
34 -24 0 -37 -6 -45 -19z"></path>
<path d="M2736 3060 c-9 -22 -16 -45 -16 -50 0 -6 35 -10 80 -10 l81 0 19 46
c11 25 20 48 20 50 0 2 -38 4 -84 4 l-84 0 -16 -40z"></path>
<path d="M2921 2959 c-33 -81 -35 -79 79 -79 l101 0 18 43 c40 94 46 87 -72
87 l-104 0 -22 -51z"></path>
<path d="M3160 2915 c-4 -11 -19 -48 -33 -82 l-26 -63 117 0 117 0 30 77 c17
42 31 80 33 84 2 4 -49 7 -114 6 -106 -2 -117 -4 -124 -22z"></path>
<path d="M3480 2911 l-55 -6 -42 -100 c-23 -55 -42 -104 -42 -108 -1 -4 56 -6
125 -5 l126 3 44 110 c24 60 44 110 44 112 0 5 -139 0 -200 -6z"></path>
<path d="M3701 2898 c-5 -13 -25 -62 -45 -110 -20 -48 -36 -89 -36 -91 0 -2
66 -7 148 -11 146 -7 237 -17 248 -29 6 -5 -181 -472 -195 -489 -3 -4 -47 -1
-96 7 -50 8 -140 15 -201 15 l-111 0 -30 -77 -31 -78 162 -6 c88 -3 180 -11
203 -18 l43 -12 -16 -37 c-8 -20 -56 -138 -106 -262 -49 -124 -91 -226 -92
-227 -1 -2 -47 6 -102 17 -54 10 -144 22 -199 26 l-100 6 -44 -106 c-24 -59
-42 -108 -40 -110 2 -2 56 -8 119 -15 132 -14 311 -51 420 -88 185 -63 401
-201 486 -313 21 -27 41 -50 44 -50 4 0 18 28 32 63 14 34 161 399 327 810
l302 749 -37 44 c-45 56 -160 155 -232 202 -201 128 -488 212 -730 212 -76 0
-83 -2 -91 -22z m599 -334 c53 -28 115 -70 151 -103 l60 -56 -95 -232 c-52
-128 -98 -239 -103 -247 -7 -13 -20 -7 -73 31 -36 25 -111 68 -166 94 l-102
50 102 254 c76 192 105 255 118 255 9 0 58 -21 108 -46z m-275 -659 c50 -25
121 -69 157 -99 l66 -55 -100 -248 c-55 -136 -103 -251 -107 -255 -4 -4 -38
13 -76 39 -38 25 -112 66 -165 91 -52 25 -96 46 -98 47 -2 2 40 108 92 237 52
129 100 247 105 261 6 15 16 27 23 27 7 0 54 -20 103 -45z"></path>
<path d="M2151 2639 c-6 -18 -11 -34 -11 -35 0 -2 19 -4 43 -4 40 0 45 3 60
35 l17 35 -49 0 c-46 0 -50 -2 -60 -31z"></path>
<path d="M3380 2663 l-55 -4 -38 -92 c-20 -51 -37 -96 -37 -100 0 -10 223 -7
240 3 15 9 90 187 82 195 -5 5 -92 4 -192 -2z"></path>
<path d="M2304 2505 c-7 -19 -14 -37 -14 -40 0 -3 29 -5 63 -5 l64 0 16 40 15
40 -64 0 c-65 0 -65 0 -80 -35z"></path>
<path d="M3216 2388 c-34 -78 -59 -148 -55 -151 2 -1 59 -1 126 1 l121 4 40
99 40 99 -124 0 -125 0 -23 -52z"></path>
<path d="M2455 2364 c-8 -20 -15 -40 -15 -44 0 -7 82 -20 131 -20 15 0 29 6
32 13 3 6 12 29 21 50 l16 37 -85 0 -85 0 -15 -36z"></path>
<path d="M2661 2305 c-4 -5 -17 -33 -28 -61 l-21 -52 100 -7 c55 -4 103 -3
107 1 4 5 17 35 29 66 l21 57 -100 3 c-60 2 -104 -1 -108 -7z"></path>
<path d="M2881 2223 c-10 -19 -61 -144 -61 -150 0 -2 52 -3 116 -3 l115 0 15
35 c8 20 23 58 34 85 l20 50 -115 0 c-99 0 -116 -2 -124 -17z"></path>
<path d="M3102 2110 l-41 -100 128 0 128 0 36 93 c20 51 37 96 37 100 0 4 -55
7 -123 7 l-123 0 -42 -100z"></path>
<path d="M3171 1980 l-123 -5 -40 -99 c-21 -54 -38 -99 -36 -100 2 -1 59 1
127 4 l125 5 38 95 c21 52 37 97 36 100 -2 3 -59 3 -127 0z"></path>
<path d="M1872 1945 c-19 -40 -15 -45 32 -45 40 0 45 3 55 31 6 18 11 34 11
35 0 2 -20 4 -43 4 -37 0 -46 -4 -55 -25z"></path>
<path d="M2025 1810 c-24 -46 -20 -50 48 -50 62 0 63 0 75 33 7 18 12 36 12
40 0 4 -27 7 -60 7 -56 0 -60 -2 -75 -30z"></path>
<path d="M2957 1743 c-8 -13 -77 -183 -77 -188 0 -3 57 -4 126 -3 l126 3 18
45 c10 25 27 69 39 98 l21 52 -125 0 c-68 0 -126 -3 -128 -7z"></path>
<path d="M2175 1674 c-26 -63 -24 -65 66 -62 l81 3 19 48 19 47 -85 0 -85 0
-15 -36z"></path>
<path d="M2357 1559 c-19 -45 -23 -61 -13 -65 7 -3 54 -3 105 -2 l93 3 24 59
c13 33 24 61 24 63 0 2 -47 3 -103 3 l-104 0 -26 -61z"></path>
<path d="M2594 1515 c-8 -20 -23 -58 -34 -85 l-20 -50 118 0 117 0 30 78 c16
42 31 80 33 85 2 4 -49 7 -113 7 l-116 0 -15 -35z"></path>
<path d="M2980 1523 l-115 -4 -37 -92 c-21 -51 -40 -99 -43 -107 -5 -13 12
-14 121 -10 l127 5 42 102 c38 92 44 118 26 111 -3 -1 -58 -4 -121 -5z"></path>
<path d="M2401 703 c21 -82 39 -151 39 -155 0 -5 24 -8 53 -8 l52 0 29 106
c15 58 30 103 32 101 2 -2 14 -48 27 -103 l24 -99 53 0 54 0 31 120 32 120 36
3 c34 3 37 6 37 33 l0 30 -67 -3 -67 -3 -26 -110 c-30 -125 -27 -126 -66 39
l-18 76 -46 0 -47 0 -29 -105 c-16 -58 -31 -105 -34 -105 -4 0 -17 47 -30 105
l-23 105 -43 0 -42 0 39 -147z"></path>
<path d="M3350 790 c0 -64 -3 -68 -34 -45 -32 24 -93 19 -121 -10 -14 -13 -25
-30 -25 -37 -1 -7 -7 -1 -16 14 -8 15 -23 32 -34 38 -27 15 -82 12 -107 -5
-19 -13 -22 -13 -27 1 -4 10 -16 14 -38 12 l-33 -3 -3 -107 -3 -108 41 0 40 0
0 68 c0 81 13 105 55 100 l30 -3 3 -82 3 -83 39 0 c38 0 40 1 40 33 l0 32 20
-32 c26 -44 80 -54 132 -25 30 16 38 17 38 6 0 -9 11 -14 35 -14 34 0 35 1 35
38 l0 37 19 -31 c58 -96 249 -57 252 51 0 26 4 21 24 -30 l23 -60 48 0 49 0
20 67 c11 38 22 68 26 68 3 0 15 -32 28 -71 l22 -70 46 3 c49 3 46 0 87 112 6
18 7 18 19 2 7 -10 38 -24 68 -30 36 -8 55 -18 57 -29 4 -22 -53 -24 -62 -2
-3 9 -19 15 -41 15 -27 0 -35 -4 -35 -18 0 -32 36 -55 94 -60 91 -7 146 41
118 103 -8 18 -25 26 -67 36 -59 13 -76 26 -54 40 19 12 25 11 43 -6 8 -8 28
-15 45 -15 24 0 31 4 31 20 0 37 -38 50 -143 49 -59 -1 -100 -6 -106 -13 -5
-6 -17 -37 -27 -68 -10 -32 -20 -58 -24 -58 -3 0 -16 32 -29 70 l-22 70 -44 0
-44 0 -22 -70 c-13 -38 -26 -70 -30 -70 -3 0 -15 30 -25 68 l-20 67 -39 0
c-34 0 -40 -3 -36 -20 3 -20 3 -20 -18 -1 -23 21 -103 33 -147 22 -15 -4 -40
-21 -56 -38 l-28 -30 0 81 0 81 -35 0 -35 0 0 -60z m-34 -78 c22 -14 35 -53
29 -83 -16 -70 -105 -56 -105 16 0 51 43 89 76 67z m274 -12 c24 -24 26 -77 3
-102 -41 -45 -101 0 -89 67 10 53 51 70 86 35z"></path>
<path d="M2828 728 c-2 -18 -2 -68 0 -110 l4 -78 34 0 34 0 0 110 0 110 -34 0
c-32 0 -35 -3 -38 -32z"></path>
<path d="M4302 748 c-6 -6 -12 -17 -12 -22 0 -6 5 -4 11 4 9 12 10 10 6 -8 -5
-19 -3 -21 9 -11 10 8 14 8 14 0 0 -17 20 -13 27 5 3 8 -2 23 -11 32 -15 15
-16 15 -17 -3 0 -18 -1 -18 -7 -2 -6 14 -10 15 -20 5z"></path>
<path d="M6540 40 c0 -29 2 -30 46 -30 25 0 43 4 39 9 -3 5 -1 12 5 16 5 3 10
-1 10 -9 0 -12 11 -16 45 -16 33 0 45 4 45 15 0 8 5 15 10 15 6 0 10 -7 10
-15 0 -8 5 -15 10 -15 6 0 10 9 10 21 0 19 -5 20 -85 17 -63 -2 -85 0 -85 10
0 7 -13 12 -30 12 -27 0 -30 -3 -30 -30z m47 -16 c-3 -3 -12 -4 -19 -1 -8 3
-5 6 6 6 11 1 17 -2 13 -5z"></path>
</g>
</svg>